<svg width="707" height="464" viewBox="0 0 707 464" fill="none" xmlns="http://www.w3.org/2000/svg">
<path d="M317.332 43.8837C317.332 43.8837 264.832 -41.9725 194.673 27.6034C194.673 27.6034 173.567 52.8989 134.961 39.164C109.877 30.2549 62.6803 42.2398 58.5969 115.422C56.5818 151.164 28.3165 175.134 28.3165 175.134C28.3165 175.134 -52.2367 226.255 58.3848 292.278C220.075 388.741 242.825 235.005 242.825 235.005C242.825 235.005 245.582 190.725 300.575 155.672C341.567 129.634 337.696 75.1717 317.332 43.8837Z" fill="#E7F0FF"/>
<path d="M370.841 392.877C370.841 392.877 289.121 387.839 199.711 404.278C128.386 417.377 91.6885 407.142 79.7036 402.475C78.2718 401.733 76.787 401.043 75.196 400.46C70.7415 398.763 65.8096 397.915 60.6657 397.968C40.5672 398.286 24.499 413.294 24.8171 431.483C25.1353 449.672 41.6808 464.15 61.7794 463.778C61.7794 463.778 115.764 466.218 164.764 453.066C213.765 439.968 262.765 447.074 262.765 447.074C262.765 447.074 354.719 462.877 371.901 458.634C392 458.316 408.068 443.309 407.75 425.119C407.485 407.036 390.939 392.559 370.841 392.877Z" fill="#E7F0FF"/>
<path d="M521.129 321.763C521.129 321.763 400.379 293.975 462.318 192.263C462.318 192.263 494.826 148.778 478.227 90.5505C460.25 27.7625 519.538 -5.59362 593.409 0.77003C667.281 7.13368 744.546 77.5051 685.576 228.801C638.75 349.021 521.129 321.763 521.129 321.763Z" fill="#E7F0FF"/>
<path d="M456.644 143.899C451.182 176.778 430.447 200.695 410.295 197.354C390.144 194.013 378.212 164.687 383.674 131.808C389.136 98.9293 409.871 75.0125 430.023 78.3535C450.174 81.6944 462.053 111.02 456.644 143.899Z" fill="#E7F0FF"/>
<path d="M435.802 229.437C435.802 220.793 428.802 213.793 420.158 213.793C411.514 213.793 404.514 220.793 404.514 229.437C404.514 238.081 411.514 245.081 420.158 245.081C428.802 245.081 435.802 238.081 435.802 229.437Z" fill="#E7F0FF"/>
<path d="M690.984 308.771C690.984 300.127 683.984 293.127 675.34 293.127C666.696 293.127 659.696 300.127 659.696 308.771C659.696 317.415 666.696 324.415 675.34 324.415C683.984 324.415 690.984 317.415 690.984 308.771Z" fill="#E2ECED"/>
<path d="M135.862 85.5657C135.862 85.5657 120.112 105.24 94.5511 103.702C68.9904 102.164 68.248 129.899 68.248 129.899C68.248 129.899 67.6116 178.263 114.437 168.77C114.437 168.77 163.172 156.467 161.741 96.3309L135.862 85.5657Z" fill="#52878B"/>
<path d="M386.961 401.309H376.567C376.196 401.309 375.877 401.627 375.877 401.998V403.695H227.021V401.998C227.021 401.627 226.703 401.309 226.332 401.309H222.673V386.885L239.324 370.233H305.347V365.778H240.65V359.892H386.324V357.665V289.415V287.187L361.559 287.24L221.718 264.066L218.907 245.505L214.506 246.195L231.794 359.892H236.195V367.051L218.218 385.029V401.256H215.991C215.62 401.256 215.301 401.574 215.301 401.945V422.415C215.301 422.786 215.62 423.104 215.991 423.104H226.385C226.756 423.104 227.074 422.786 227.074 422.415V408.097H375.877V422.415C375.877 422.786 376.196 423.104 376.567 423.104H386.961C387.332 423.104 387.65 422.786 387.65 422.415V401.945C387.65 401.574 387.332 401.309 386.961 401.309ZM227.339 300.763L262.658 304.581L265.998 329.877L231.529 328.233L227.339 300.763ZM267.165 305.112L300.309 308.718L302.908 331.733L270.453 330.195L267.165 305.112ZM330.696 333.006L307.468 331.892L304.923 309.142L329.847 311.847L330.696 333.006ZM334.249 312.377L359.014 315.081V334.438L335.15 333.271L334.249 312.377ZM330.855 337.513L331.597 355.438H310.12L307.945 336.4L330.855 337.513ZM335.309 337.725L359.014 338.839V355.438H336.105L335.309 337.725ZM363.468 338.945H381.923V355.438H363.468V338.945ZM381.87 334.491H363.415V315.24H381.87V334.491ZM359.014 310.574L334.089 307.869L333.188 286.975L359.014 291.271V310.574ZM329.582 307.392L304.339 304.634L301.741 281.778L328.68 286.233L329.582 307.392ZM299.832 304.157L266.582 300.551L263.241 275.415L297.233 281.036L299.832 304.157ZM303.438 336.187L305.612 355.438H273.847L271.089 334.65L303.438 336.187ZM381.87 310.839H363.415V291.589H381.87V310.839ZM258.627 274.619L262.021 300.021L226.65 296.203L222.46 268.627L258.627 274.619ZM232.165 332.741L266.582 334.384L269.392 355.438H235.665L232.165 332.741Z" fill="#52878B"/>
<path d="M185.871 160.285C185.871 160.285 173.674 200.642 205.863 236.384L201.939 241.581C201.939 241.581 132.257 205.68 165.083 134.831L185.871 160.285Z" fill="#F4AAAF"/>
<path d="M173.356 121.838C163.81 121.149 155.537 128.308 154.848 137.801V137.854H154.795L153.204 159.702L187.674 162.248L189.212 141.142C189.265 140.876 189.265 140.611 189.318 140.346C190.007 130.801 182.901 122.528 173.356 121.838Z" fill="#ED6D61"/>
<path d="M178.445 156.945L179.135 161.611L187.673 162.248L187.991 157.687L178.445 156.945Z" fill="#B7564B"/>
<path d="M158.083 409.104H149.067V422.097V422.203C149.173 423.476 151.136 424.536 153.575 424.536C156.014 424.536 157.976 423.476 158.083 422.203V409.104Z" fill="#F4AAAF"/>
<path d="M149.013 422.097C149.013 422.097 152.938 425.597 158.029 422.097C158.029 422.097 173.461 422.044 173.461 430.104H149.013C149.013 430.157 147.317 426.923 149.013 422.097Z" fill="#53B0B2"/>
<path d="M173.462 429.998H148.961V431.483H173.462V429.998Z" fill="white"/>
<path d="M149.067 408.415V409.104H158.083V408.415H149.067Z" fill="#C6C6C6"/>
<path d="M149.067 409.104V415.68H158.083V409.104H149.067Z" fill="#BC8589"/>
<path d="M69.4678 404.278L61.4072 400.248L55.5208 411.968C55.0435 413.188 56.3162 414.991 58.4905 416.051C60.6647 417.165 62.892 417.112 63.5284 415.998L69.4678 404.278Z" fill="#F9C9CA"/>
<path d="M55.5739 411.862C55.5739 411.862 57.483 416.741 63.6345 415.892C63.6345 415.892 77.4755 422.733 73.8164 429.998L51.9678 419.021C51.9678 419.021 51.9148 415.309 55.5739 411.862Z" fill="#67BCC2"/>
<path d="M51.979 418.873L51.3135 420.2L73.2141 431.181L73.8796 429.854L51.979 418.873Z" fill="white"/>
<path d="M68.0895 407.089L66.6047 410.112L68.0895 407.089ZM61.7259 399.612L61.4077 400.248L69.4683 404.278L69.7865 403.642L61.7259 399.612Z" fill="#AFB8B9"/>
<path d="M61.4074 400.195L58.4907 406.081L66.5514 410.112L68.0892 407.089L69.468 404.278L61.4074 400.195Z" fill="#C09D9E"/>
<path d="M178.074 204.778C178.074 204.778 224.105 305.589 164.71 411.437L142.915 410.907C142.915 410.907 149.597 356.71 146.521 295.672C143.763 240.68 137.082 209.232 137.082 209.232L178.074 204.778Z" fill="#53B0B2"/>
<path d="M158.613 206.74H116.984C116.984 206.74 87.3404 231.187 106.59 308.081C106.59 308.081 64.1662 350.93 58.2798 399.188L75.4617 408.097C75.4617 408.097 109.719 384.074 142.863 327.49C171.075 279.233 158.613 206.74 158.613 206.74Z" fill="#67BCC2"/>
<path d="M131.354 96.3837C131.354 88.0049 138.142 81.164 146.574 81.164C154.953 81.164 161.793 87.9519 161.793 96.3837C161.793 104.763 155.006 111.603 146.574 111.603C138.142 111.603 131.354 104.763 131.354 96.3837Z" fill="#52878B"/>
<path d="M116.505 207.164H179.081L179.505 167.657H116.983L116.505 207.164Z" fill="#F9C9CA"/>
<path d="M121.121 125.285L137.825 121.467L154.477 120.884L172.242 126.293L156.598 142.467L136.924 142.626L121.121 125.285Z" fill="#F9C9CA"/>
<path d="M138.196 133.081L154.477 133.505V108.316L138.196 107.892V133.081Z" fill="#F9C9CA"/>
<path d="M138.249 108.793C138.249 109.058 138.196 109.323 138.196 109.641C138.196 115.422 142.227 120.088 147.158 120.088C149.969 120.088 152.461 118.604 154.105 116.27C152.461 117.384 150.552 118.02 148.431 118.02C143.181 117.967 138.78 113.99 138.249 108.793Z" fill="#C09D9E"/>
<path d="M183.643 194.596H110.355V127.088L130.825 123.058C130.825 123.058 156.597 147.134 161.741 123.058L174.31 126.77L183.643 194.596Z" fill="#ED6D61"/>
<path d="M183.642 194.596C183.642 194.596 179.983 201.543 148.854 198.626C117.779 195.71 110.301 194.596 110.301 194.596C110.301 194.596 159.354 182.983 183.642 194.596Z" fill="#ED6D61"/>
<path d="M148.485 117.967C154.106 117.967 158.666 113.407 158.666 107.785V94.8459C158.666 89.2247 154.106 84.6641 148.485 84.6641C142.81 84.6641 138.197 89.2777 138.197 94.8989V107.679C138.144 113.353 142.757 117.967 148.485 117.967Z" fill="#F9C9CA"/>
<path d="M159.036 95.7475C159.036 95.7475 153.733 95.6944 150.339 92.1944C150.339 92.1944 146.733 95.8005 137.93 95.7475C137.93 95.7475 135.544 83.0202 149.915 84.0808C149.968 84.0808 159.619 85.4066 159.036 95.7475Z" fill="#52878B"/>
<path d="M134.644 102.801C134.644 101.21 135.916 99.937 137.507 99.937C139.098 99.937 140.371 101.21 140.371 102.801C140.371 104.392 139.098 105.664 137.507 105.664C135.916 105.664 134.644 104.392 134.644 102.801Z" fill="#F9C9CA"/>
<path d="M137.241 101.422C136.446 101.422 135.81 102.058 135.81 102.854C135.81 103.649 136.446 104.285 137.241 104.285C138.037 104.285 138.673 103.649 138.673 102.854C138.673 102.005 138.037 101.422 137.241 101.422Z" fill="#C09D9E"/>
<path d="M130.613 152.702C130.613 152.702 124.832 214.218 173.673 232.778L172.135 239.566C172.135 239.566 99.3776 243.755 99.8549 156.68L130.613 152.702Z" fill="#FAD3D5"/>
<path d="M132.044 138.967C132.044 138.702 132.044 138.437 132.044 138.172C131.567 128.626 123.453 121.308 113.908 121.785C104.362 122.263 97.044 130.376 97.5213 139.922V139.975H97.4683L98.5819 161.876L133.105 160.126L132.044 138.967Z" fill="#ED6D61"/>
<path d="M132.892 155.566L98.3696 157.263L98.5818 161.876L133.105 160.126L132.892 155.566Z" fill="#B7564B"/>
<path d="M215.725 243.172L209.256 238.717C209.309 238.293 209.309 237.869 209.309 237.445L214.718 241.157C215.248 241.528 215.991 241.422 216.415 240.839C216.786 240.308 216.627 239.566 216.097 239.142L206.71 232.672H206.657L206.551 232.619C203.634 230.604 199.604 231.346 197.589 234.263C195.68 237.074 196.263 240.839 198.915 242.907L198.968 243.013L208.354 249.483C208.885 249.854 209.627 249.695 210.051 249.164C210.422 248.634 210.263 247.892 209.733 247.467L204.695 244.021C205.119 243.914 205.544 243.702 205.915 243.49L211.96 247.627C212.491 247.998 213.233 247.839 213.657 247.308C214.028 246.778 213.922 246.036 213.339 245.611L207.877 241.846L208.195 241.475L208.46 240.998L214.347 245.081C214.877 245.452 215.619 245.346 216.044 244.763C216.468 244.18 216.256 243.543 215.725 243.172Z" fill="#F4AAAF"/>
<path d="M214.507 252.081H178.393C174.946 252.081 172.136 249.27 172.136 245.824C172.136 242.377 174.946 239.566 178.393 239.566H214.507C217.954 239.566 220.765 242.377 220.765 245.824C220.765 249.27 217.954 252.081 214.507 252.081Z" fill="#ED6D61"/>
<path d="M232.484 421.195C232.484 414.991 227.446 409.9 221.188 409.9C214.984 409.9 209.893 414.938 209.893 421.195C209.893 427.4 214.93 432.491 221.188 432.491C227.393 432.491 232.484 427.453 232.484 421.195Z" fill="#ED6D61"/>
<path d="M393.06 421.195C393.06 414.991 388.022 409.9 381.765 409.9C375.507 409.9 370.469 414.938 370.469 421.195C370.469 427.4 375.507 432.491 381.765 432.491C388.022 432.491 393.06 427.453 393.06 421.195Z" fill="#ED6D61"/>
<path d="M190.484 239.354L183.007 236.915C182.954 236.49 182.848 236.066 182.689 235.695L188.946 237.763C189.583 237.975 190.272 237.604 190.484 237.021C190.696 236.384 190.325 235.695 189.742 235.483L178.924 231.93H178.871L178.765 231.877C175.371 230.763 171.765 232.619 170.651 235.96C169.59 239.195 171.234 242.642 174.363 243.915L174.469 243.968L185.287 247.521C185.924 247.733 186.613 247.361 186.825 246.778C187.037 246.142 186.666 245.452 186.083 245.24L180.302 243.331C180.674 243.066 181.045 242.801 181.363 242.483L188.31 244.763C188.946 244.975 189.636 244.604 189.848 244.021C190.06 243.384 189.689 242.695 189.106 242.483L182.795 240.414L183.007 239.937L183.113 239.407L189.901 241.634C190.537 241.846 191.227 241.475 191.439 240.892C191.439 240.255 191.121 239.566 190.484 239.354Z" fill="#FAD3D5"/>
<path d="M531.151 141.672C531.151 141.672 528.234 197.195 484.59 231.081L490.424 235.536C490.424 235.536 530.568 224.611 558.78 153.975L531.151 141.672Z" fill="#FAD3D5"/>
<path d="M533.696 128.467L533.908 127.725C537.037 118.922 546.688 114.361 555.438 117.437C564.241 120.566 568.802 130.164 565.726 138.967V139.02H565.779L558.673 159.172L526.855 147.929L533.696 128.467Z" fill="#EF785E"/>
<path d="M528.289 143.687L526.804 147.93L533.539 150.316C533.804 148.831 534.122 147.293 534.44 145.861L528.289 143.687Z" fill="#B85F49"/>
<path d="M471.28 239.46L478.015 235.748C478.015 235.324 478.015 234.899 478.121 234.528L472.499 237.604C471.916 237.922 471.227 237.71 470.909 237.127C470.59 236.543 470.803 235.854 471.386 235.536L481.143 230.18H481.196L481.303 230.127C484.325 228.483 488.143 229.596 489.84 232.619C491.431 235.536 490.477 239.142 487.719 240.892L487.666 240.998L477.909 246.354C477.325 246.672 476.636 246.46 476.318 245.877C476 245.293 476.212 244.604 476.795 244.286L481.992 241.422C481.568 241.263 481.196 241.051 480.825 240.786L474.568 244.233C473.984 244.551 473.295 244.339 472.977 243.755C472.659 243.172 472.871 242.483 473.454 242.165L479.128 239.036L478.863 238.612L478.651 238.081L472.553 241.422C471.969 241.74 471.28 241.528 470.962 240.945C470.484 240.468 470.696 239.725 471.28 239.46Z" fill="#FAD3D5"/>
<path d="M598.765 88.8534C598.765 80.1034 592.984 72.9973 585.825 72.9973C578.666 72.9973 572.886 80.1034 572.886 88.8534C572.886 97.6034 578.666 104.709 585.825 104.709C592.984 104.709 598.765 97.6034 598.765 88.8534Z" fill="#52878B"/>
<path d="M548.226 189.24C548.226 189.24 503.575 292.755 548.173 417.324L556.605 417.059C556.605 417.059 551.037 339.634 571.878 286.392C592.719 233.096 590.173 197.99 590.173 197.99L548.226 189.24Z" fill="#F9C9CA"/>
<path d="M593.25 191.68C593.25 191.68 548.598 295.195 593.197 419.763L601.629 419.498C601.629 419.498 599.508 345.097 614.356 305.748C634.083 253.354 618.546 196.93 618.546 196.93L593.25 191.68Z" fill="#F9C9CA"/>
<path d="M550.667 116.535C550.667 116.535 560.53 260.672 546.689 265.869C539.053 268.733 532.212 265.286 528.394 262.528C526.379 261.096 525.159 258.286 525.212 255.21C525.371 230.445 529.03 112.982 550.667 116.535Z" fill="#63BCC0"/>
<path d="M556.447 414.725C556.447 414.725 552.47 418.278 547.273 414.725C547.273 414.725 531.576 414.672 531.576 422.892H556.5C556.5 422.892 558.25 419.604 556.447 414.725Z" fill="#EF785E"/>
<path d="M556.553 424.271H531.576V422.786L556.553 422.733V424.271Z" fill="#C7C6C6"/>
<path d="M604.492 414.725C604.492 414.725 600.515 418.278 595.318 414.725C595.318 414.725 579.621 414.672 579.621 422.892H604.545C604.492 422.892 606.295 419.604 604.492 414.725Z" fill="#EF785E"/>
<path d="M604.546 424.271H579.568V422.786L604.546 422.733V424.271Z" fill="#C7C6C6"/>
<path d="M566.787 317.203C582.696 264.915 590.28 202.392 590.28 202.392L546.53 200.058C546.53 200.058 515.136 238.718 525.211 317.203H566.787Z" fill="#BCA280"/>
<path d="M620.19 317.203C621.038 306.915 623.371 288.089 626.235 274.619C637.902 219.733 618.068 200.058 618.068 200.058L568.803 203.399C568.803 203.399 554.697 269.263 569.333 317.203H620.19Z" fill="#D6BB92"/>
<path d="M608.735 116.376L591.712 112.558L574.742 111.922L556.076 116.164L572.621 133.929L592.614 134.088L608.735 116.376Z" fill="#F9C9CA"/>
<path d="M591.342 124.384L571.614 124.808V99.1413L591.342 98.7171V124.384Z" fill="#F9C9CA"/>
<path d="M591.341 99.2474C591.341 99.3005 591.341 99.3535 591.341 99.4065V100.785C591.341 100.467 591.394 100.149 591.394 99.8308C591.394 99.6186 591.394 99.4065 591.341 99.2474Z" fill="#406A6D"/>
<path d="M571.189 102.323C571.189 103.119 571.349 103.914 571.561 104.657V103.225C571.455 102.96 571.349 102.642 571.189 102.323Z" fill="#AFB8B9"/>
<path d="M591.342 99.3536C590.917 104.71 586.41 108.952 580.895 108.952C576.811 108.952 573.311 106.619 571.614 103.172V104.604C572.834 108.104 576.652 110.702 581.266 110.702C586.516 110.702 590.917 106.725 591.395 100.732V99.3536" fill="#C09D9E"/>
<path d="M580.894 109.005C575.167 109.005 570.553 104.391 570.553 98.664V85.4595C570.553 79.7322 575.22 75.0655 580.947 75.0655C586.727 75.0655 591.394 79.7322 591.394 85.5125V98.5049C591.394 104.285 586.674 109.005 580.894 109.005Z" fill="#F9C9CA"/>
<path d="M594.999 93.5202C594.999 91.9293 593.674 90.6036 592.083 90.6036C590.492 90.6036 589.166 91.9293 589.166 93.5202C589.166 95.1112 590.492 96.4369 592.083 96.4369C593.674 96.4369 594.999 95.1112 594.999 93.5202Z" fill="#F9C9CA"/>
<path d="M592.294 92.0883C591.499 92.0883 590.862 92.7247 590.862 93.5201C590.862 94.3156 591.499 94.9519 592.294 94.9519C593.09 94.9519 593.726 94.3156 593.726 93.5201C593.726 92.7247 593.09 92.0883 592.294 92.0883Z" fill="#C09D9E"/>
<path d="M591.235 112.558C580.152 122.475 571.614 112.558 571.614 112.558L549.5 116.535L543.879 202.922H618.546L612.235 116.907L591.235 112.558Z" fill="#EF785E"/>
<path d="M543.879 202.922C543.879 202.922 547.644 211.46 579.303 207.748C610.962 204.036 618.546 202.922 618.546 202.922C618.546 202.922 568.644 188.339 543.879 202.922Z" fill="#EF785E"/>
<path d="M607.036 114.626C603.271 113.937 599.718 116.854 599.4 120.672C597.014 147.081 589.112 248.263 605.711 262.634C617.112 272.498 626.817 270.377 635.037 266.877C637.37 265.869 644.264 263.748 644.264 257.808C644.264 235.111 653.226 123.005 607.036 114.626Z" fill="#79C8CC"/>
<path d="M609.158 150.263C609.158 150.263 631.537 200.058 559.31 224.187V231.24C559.31 231.24 656.09 232.248 638.59 143.316L609.158 150.263Z" fill="#FAD3D5"/>
<path d="M604.173 137.323L603.908 136.581C601.044 127.725 605.923 118.179 614.832 115.369C623.688 112.505 633.234 117.384 636.044 126.293V126.346H636.097L642.62 146.71L610.484 157.051L604.173 137.323Z" fill="#EF785E"/>
<path d="M641.242 142.414L609.106 152.755L610.485 156.997L642.621 146.71L641.242 142.414Z" fill="#B85F49"/>
<path d="M544.939 225.513L552.575 225.142C552.734 224.771 552.946 224.399 553.211 224.081L546.795 224.346C546.158 224.399 545.575 223.869 545.575 223.233C545.522 222.596 546.052 222.013 546.688 222.013L557.825 221.483H557.878H557.984C561.431 221.324 564.401 224.028 564.56 227.475C564.719 230.816 562.226 233.627 558.992 233.998L558.885 234.051L547.749 234.528C547.113 234.581 546.529 234.051 546.529 233.415C546.476 232.778 547.007 232.195 547.643 232.195L553.582 231.93C553.317 231.612 553.052 231.24 552.84 230.869L545.681 231.187C545.045 231.24 544.461 230.71 544.461 230.074C544.408 229.437 544.938 228.854 545.575 228.854L552.045 228.536L551.992 228.059L552.045 227.528L545.045 227.846C544.408 227.899 543.825 227.369 543.825 226.733C543.772 226.096 544.249 225.566 544.939 225.513Z" fill="#FAD3D5"/>
<path d="M598.764 83.2323C598.764 75.2777 592.294 68.808 584.34 68.808C576.385 68.808 569.916 75.2777 569.916 83.2323H598.764Z" fill="#EF785E"/>
<path d="M569.811 84.6642H607.515C607.94 84.6642 608.258 84.346 608.258 83.9218C608.258 83.4975 607.94 83.1793 607.515 83.1793H569.811C569.386 83.1793 569.068 83.4975 569.068 83.9218C569.068 84.346 569.386 84.6642 569.811 84.6642Z" fill="#ED6D61"/>
<path d="M584.074 78.99H573.362V81.2173H584.074V78.99Z" fill="#52878B"/>
<path d="M579.302 428.619H429.385V235.695H579.302V428.619Z" fill="#93C1FB"/>
<path d="M675.289 418.809L579.304 428.619V235.695L675.289 252.771V418.809Z" fill="#4DA7FF"/>
<path d="M579.302 235.695H490.529H478.014H475.945H471.12H434.476H429.385V284.377H579.302V235.695Z" fill="#4DA7FF"/>
<path d="M579.302 379.885H429.385V428.619H579.302V379.885Z" fill="#4DA7FF"/>
<path d="M579.304 235.695V284.377L675.289 281.46V252.771L644.531 247.308L597.493 238.93L579.304 235.695Z" fill="#0089EC"/>
<path d="M579.304 379.885V428.619L675.289 418.809V385.877L579.304 379.885Z" fill="#0089EC"/>
<path d="M527.014 228.43V194.119H514.393V184.467H464.81V235.695H512.007H514.393H523.249H527.014H542.287V230.604L527.014 228.43Z" fill="#8E98CC"/>
<path d="M471.917 174.285H469.53V187.278H471.917V174.285Z" fill="#8E98CC"/>
<path d="M503.044 174.285H500.605V187.278H503.044V174.285Z" fill="#8E98CC"/>
<path d="M507.817 167.02H464.81V176.672H507.817V167.02Z" fill="#EF785E"/>
<path d="M500.605 184.467H471.916V187.278H469.529V184.467H464.81V235.695H542.287V233.521L514.605 231.187V205.414H501.825V187.278H500.605V184.467Z" fill="#6F789F"/>
<path d="M470.697 176.672H469.53V184.467V187.278H471.917V184.467H470.697V176.672Z" fill="#6F789F"/>
<path d="M501.825 176.672H500.605V184.467V187.278H501.825V186.058V184.467V176.672Z" fill="#6F789F"/>
<path d="M501.825 167.02H464.81V176.672H469.529H470.696H500.605H501.825V175.399V167.02Z" fill="#B85F49"/>
<path d="M452.083 36.2474H445.242V235.695H452.083V36.2474Z" fill="#8E98CC"/>
<path d="M448.636 44.3079H445.242V235.695H448.636V44.3079Z" fill="#6F789F"/>
<path d="M472.976 6.92139H424.506V44.3078H472.976V6.92139Z" fill="#EF785E"/>
<path d="M468.416 6.92139H424.506V44.3078H468.416V6.92139Z" fill="#B85F49"/>
</svg>
